<svg xmlns="http://www.w3.org/2000/svg" width="71.93" height="71.93" viewBox="0 0 71.93 71.93"><g transform="translate(-684 -225.07)"><path d="M0,0V71.93H71.924V0Z" transform="translate(684.005 225.07)" fill="none"/><path d="M35.965,0A35.965,35.965,0,1,0,71.93,35.965,35.962,35.962,0,0,0,35.965,0Z" transform="translate(684 225.07)" fill="#ff1a2e"/><path d="M29.579,26.081A2.528,2.528,0,1,1,26,29.649L15.158,18.782,4.319,29.649A2.528,2.528,0,0,1,.737,26.081L11.589,15.2.737,4.319A2.528,2.528,0,0,1,4.319.751L15.158,11.618,26,.744a2.528,2.528,0,1,1,3.583,3.568L18.726,15.2Z" transform="translate(704.807 245.836)" fill="#fff"/><path d="M0,0V71.93H71.924V0Z" transform="translate(684.005 225.07)" fill="none"/></g></svg>