<svg xmlns="http://www.w3.org/2000/svg" width="11.099" height="12.602" viewBox="0 0 11.099 12.602"><g transform="translate(0.3 0.301)"><path d="M10.431,5.908a.422.422,0,0,0-.832.138,4.326,4.326,0,0,1,.056.707A4.406,4.406,0,0,1,2.134,9.866,4.406,4.406,0,0,1,5.25,2.344l.148,0-.959.959a.422.422,0,1,0,.6.6L6.626,2.31a.421.421,0,0,0,0-.6L5.035.124a.422.422,0,1,0-.6.6l.78.78A5.251,5.251,0,0,0,3.206,11.588,5.255,5.255,0,0,0,10.087,8.8a5.273,5.273,0,0,0,.345-2.888Z" transform="translate(0)" fill="#fff" stroke="#fff" stroke-width="0.6"/></g></svg>